<svg width="63" height="56" viewBox="0 0 63 56" fill="none"
  xmlns="http://www.w3.org/2000/svg">
  <path d="M28.3105 6.17507C49.3993 26.4945 45.1314 20.0059 55.5312 27.797C74.7492 40.3081 49.0758 56.1063 41.8949 55.5995C39.0395 55.7394 29.1638 49.2965 25.4009 46.1034C22.3905 43.5489 12.1144 39.3696 7.35258 37.5993C3.84212 36.054 5.19099 32.0379 8.7765 32.7782C9.58161 32.8532 11.9594 33.4809 11.9594 33.4809C13.6352 33.7995 19.3549 36.0381 17.5768 32.4615C15.7987 28.8849 3.06797 19.09 1.20554 17.292C-1.51647 14.6643 1.83416 11.4221 4.39867 13.5291C6.96318 15.6362 13.2814 21.9099 14.8168 22.865C16.7828 24.4287 18.1409 22.9309 16.3431 21.3018C15.4442 20.4872 4.25849 10.6738 2.4991 8.64182C-0.0143295 5.73905 3.72669 3.31492 6.42269 5.75923C8.21987 7.3885 18.6655 17.2953 19.8358 17.8104C22.1389 19.2432 22.9083 17.5862 21.5306 16.1818C20.5662 15.1986 12.2728 8.33475 10.5134 6.30282C6.9946 2.23891 11.2451 0.19889 14.0061 2.81145C14.0061 2.81145 23.3848 11.9694 24.9202 12.9244C26.8862 14.488 27.6822 12.0448 26.7181 11.0617C25.754 10.0786 23.189 7.97183 20.2969 5.02205C16.5438 0.855054 21.225 -0.576457 23.6865 1.76471C26.1481 4.10588 28.3105 6.17507 28.3105 6.17507Z" fill="#6700EB"/>
</svg>
