<svg width="982" height="208" viewBox="0 0 982 208" fill="none"
  xmlns="http://www.w3.org/2000/svg">
  <path d="M118 186.266C57.1274 212.236 18.5522 173.216 13.0004 127.51C4.00037 -25.3613 278.166 18.2916 278.166 18.2916C350.492 30.4269 393.243 51.884 434.035 68.0809C474.827 84.2777 543.902 117.65 594.286 127.51C644.671 137.37 674 139 736.5 107.031C799 75.0629 834.5 41 981 30.5" stroke="url(#paint0_linear)" stroke-width="25"/>
  <path d="M123.908 170.828C122.708 169.628 112.896 174.495 108.396 176.828L109.599 178.748C112.432 185.581 118.299 199.248 119.099 199.248C120.099 199.248 133.973 194.464 134.744 189.454C135.514 184.445 125.408 172.328 123.908 170.828Z" fill="#6700EB"/>
  <defs>
    <linearGradient id="paint0_linear" x1="731" y1="13" x2="964.461" y2="13" gradientUnits="userSpaceOnUse">
      <stop stop-color="#6700EB"/>
      <stop offset="1" stop-color="#6700EB" stop-opacity="0"/>
    </linearGradient>
  </defs>
</svg>
