<svg width="73" height="78" viewBox="0 0 73 78" fill="none"
  xmlns="http://www.w3.org/2000/svg">
  <path d="M39.2996 17.7102C18.2108 38.0297 22.4787 31.541 12.079 39.3321C-7.13906 51.8432 18.5344 67.6414 25.7152 67.1347C28.5706 67.2746 38.4463 60.8317 42.2092 57.6385C45.2196 55.084 55.4957 50.9048 60.2575 49.1345C63.768 47.5891 62.4191 43.5731 58.8336 44.3133C58.0285 44.3884 55.6507 45.0161 55.6507 45.0161C53.9749 45.3347 48.2552 47.5733 50.0333 43.9967C51.8114 40.4201 64.5421 30.6252 66.4046 28.8272C69.1266 26.1994 65.7759 22.9573 63.2114 25.0643C60.6469 27.1713 54.3288 33.445 52.7933 34.4001C50.8273 35.9638 49.4692 34.4661 51.267 32.837C52.1659 32.0224 63.3516 22.209 65.111 20.177C67.6244 17.2742 63.8834 14.8501 61.1874 17.2944C59.3902 18.9237 48.9446 28.8304 47.7743 29.3456C45.4712 30.7783 44.7018 29.1214 46.0795 27.7169C47.0439 26.7338 55.3373 19.8699 57.0967 17.838C60.6155 13.7741 56.365 11.734 53.604 14.3466C53.604 14.3466 44.2253 23.5046 42.6899 24.4596C40.7239 26.0232 39.928 23.58 40.892 22.5969C41.8561 21.6138 44.4211 19.507 47.3132 16.5572C51.0663 12.3902 46.3851 10.9587 43.9236 13.2999C41.462 15.641 39.2996 17.7102 39.2996 17.7102Z" fill="#6700EB"/>
</svg>
