<svg width="1558" height="298" viewBox="0 0 1558 298" fill="none"
  xmlns="http://www.w3.org/2000/svg">
  <path d="M1509.43 12.3718C1508.28 13.6179 1513.52 23.2312 1516.03 27.6361L1517.9 26.3589C1524.62 23.2597 1538.05 16.8613 1538.02 16.0619C1537.98 15.0627 1532.65 1.38682 1527.62 0.813304C1522.58 0.239789 1510.87 10.8141 1509.43 12.3718Z" fill="#6700EB"/>
  <path d="M1527.54 20C1540.45 44.6976 1559.35 98.008 1527.54 136.79C1480.03 194.731 1380.34 219.066 1307.26 190.965C1237.79 159.126 1263.41 139.147 1064.97 52.7328C866.522 -33.6809 821.336 221.064 588.418 150.135C434.185 103.167 435.624 119.166 316.836 190.965C198.048 262.763 209.228 275.01 1 285" stroke="url(#paint0_linear)" stroke-width="25"/>
  <defs>
    <linearGradient id="paint0_linear" x1="21.0309" y1="20.2654" x2="234.129" y2="20.1485" gradientUnits="userSpaceOnUse">
      <stop stop-color="#6700EB" stop-opacity="0"/>
      <stop offset="1" stop-color="#6700EB"/>
    </linearGradient>
  </defs>
</svg>
