<svg width="22" height="14" viewBox="0 0 22 14" xmlns="http://www.w3.org/2000/svg">
<path d="M21.2505 6.25H22.0005V7.75H21.2505V6.25ZM0.999889 7L0.469559 7.53033V6.46967L0.999889 7ZM5.96956 0.96967C6.26245 0.676777 6.73732 0.676777 7.03022 0.96967C7.32311 1.26256 7.32311 1.73744 7.03022 2.03033L5.96956 0.96967ZM7.03022 11.9697C7.32311 12.2626 7.32311 12.7374 7.03022 13.0303C6.73732 13.3232 6.26245 13.3232 5.96956 13.0303L7.03022 11.9697ZM21.2505 7.75H0.999889V6.25H21.2505V7.75ZM0.469559 6.46967L5.96956 0.96967L7.03022 2.03033L1.53022 7.53033L0.469559 6.46967ZM1.53022 6.46967L7.03022 11.9697L5.96956 13.0303L0.469559 7.53033L1.53022 6.46967Z" />
</svg>
